Coordinates
version=1
nRows=29
nColumns=24
inDegrees=yes

Units are S.I. units (second, meters, Newtons, ...)
Angles are in degrees.

endheader
time	pelvis_tilt	pelvis_list	pelvis_rotation	pelvis_tx	pelvis_ty	pelvis_tz	hip_flexion_r	hip_adduction_r	hip_rotation_r	knee_angle_r	ankle_angle_r	subtalar_angle_r	mtp_angle_r	hip_flexion_l	hip_adduction_l	hip_rotation_l	knee_angle_l	ankle_angle_l	subtalar_angle_l	mtp_angle_l	lumbar_extension	lumbar_bending	lumbar_rotation
      1.43433333	     -0.14854554	      0.52404412	     -4.37592325	      0.27230065	      1.01709210	      0.26367632	     13.83376472	     -4.74887645	     -4.96238142	    -65.15131033	      5.66835320	     -3.09439880	      5.98059542	     11.01818161	      1.04356407	    -12.28880518	    -11.77353418	      0.54117776	    -10.15809947	     -0.48629480	    -11.76037435	     -3.40214524	      5.78370263
      1.43850000	     -0.13499511	      0.46700723	     -4.11653803	      0.27709653	      1.01779290	      0.26294701	     14.39189800	     -4.66377596	     -5.27150512	    -64.95792455	      5.81418677	     -3.67864818	      5.80845729	     10.61550625	      1.08408786	    -12.10672721	    -11.57374054	      0.68957331	     -9.95622636	     -0.49170372	    -11.84315108	     -3.30421982	      5.55322271
      1.44266667	     -0.11357648	      0.45387152	     -3.87988690	      0.28187439	      1.01844354	      0.26223204	     14.94883511	     -4.63652164	     -5.56260348	    -64.74309812	      6.05302545	     -4.19983077	      5.72212292	     10.20250143	      1.16626986	    -11.97110845	    -11.35968179	      0.77858955	     -9.78119065	     -0.49284597	    -11.93020679	     -3.24079922	      5.42218007
      1.44683333	     -0.05552411	      0.29247274	     -3.47614789	      0.28673350	      1.01926806	      0.26117099	     15.35283886	     -4.50294678	     -6.05691577	    -64.32994008	      6.14370748	     -4.71643261	      5.38964847	      9.76075396	      1.12407490	    -11.62533278	    -11.17705702	      0.94329792	     -9.58358860	     -0.50484441	    -12.06019057	     -2.96626885	      4.89486415
      1.45100000	     -0.02304600	      0.24419025	     -3.21511843	      0.29152492	      1.01995412	      0.26038132	     15.84891305	     -4.45834090	     -6.39520222	    -63.94446167	      6.19412836	     -5.27736153	      5.19272265	      9.32411739	      1.17432231	    -11.41811604	    -10.94480704	      1.07156365	     -9.45686680	     -0.51167400	    -12.15359847	     -2.86926106	      4.69511468
      1.45516667	      0.02887349	      0.15898419	     -2.90700947	      0.29631572	      1.02066571	      0.25951197	     16.28586385	     -4.39349988	     -6.79172929	    -63.47816606	      6.28988912	     -5.77632646	      4.97989932	      8.87894498	      1.18460991	    -11.18946670	    -10.73671698	      1.21017906	     -9.25415840	     -0.51827189	    -12.27435403	     -2.70802214	      4.40704711
      1.45933333	      0.19541145	      0.05753506	     -2.51295942	      0.30115167	      1.02156885	      0.25836620	     16.54026066	     -4.37664920	     -7.30359627	    -62.91480804	      6.46201227	     -6.08981908	      4.38311041	      8.30069028	      1.20967038	    -10.85192867	    -10.49472948	      1.29595831	     -9.13028279	     -0.54851690	    -12.52612503	     -2.49186639	      3.93789858
      1.46350000	      0.19244680	     -0.02211774	     -2.28809584	      0.30591991	      1.02214409	      0.25771335	     17.03463494	     -4.28380890	     -7.61145722	    -62.35252118	      6.49906834	     -6.60222308	      4.19750339	      7.90622173	      1.19486408	    -10.70816957	    -10.27777487	      1.41581552	     -8.97328836	     -0.55614600	    -12.57248904	     -2.35882428	      3.80849017
      1.46766667	      0.27513465	     -0.13529996	     -1.97384353	      0.31070727	      1.02285644	      0.25685211	     17.37852016	     -4.20403540	     -8.03087835	    -61.69161491	      6.57099432	     -7.00603234	      3.95809010	      7.43020282	      1.15907771	    -10.49110513	    -10.07436268	      1.56228106	     -8.74256626	     -0.56435156	    -12.72243437	     -2.16223926	      3.50045056
      1.47183333	      0.43998116	     -0.25097216	     -1.63595262	      0.31551666	      1.02369762	      0.25586662	     17.59824971	     -4.15093801	     -8.48352144	    -60.95870238	      6.73229303	     -7.22607675	      3.50621665	      6.84735112	      1.13702869	    -10.21330917	     -9.82266805	      1.63479989	     -8.62902412	     -0.58594587	    -12.96882806	     -1.93888746	      3.09725307
      1.47600000	      0.47399270	     -0.32074985	     -1.38499690	      0.32027030	      1.02424493	      0.25512465	     17.99839003	     -4.10372622	     -8.83345964	    -60.23136934	      6.75119172	     -7.60370712	      3.28117289	      6.41591463	      1.13271304	    -10.03595553	     -9.60022517	      1.77001892	     -8.46824579	     -0.59408597	    -13.06018189	     -1.79030835	      2.93141978
      1.48016667	      0.59376451	     -0.42862102	     -1.06808665	      0.32506340	      1.02494402	      0.25424293	     18.24680160	     -4.04842614	     -9.26568745	    -59.40442087	      6.83906693	     -7.84068761	      3.00048393	      5.89517775	      1.09461589	     -9.80972464	     -9.37797729	      1.88598045	     -8.28345245	     -0.60345817	    -13.24856970	     -1.58758357	      2.60276698
      1.48433333	      0.77330817	     -0.50538358	     -0.76417643	      0.32983172	      1.02569740	      0.25334686	     18.41923824	     -4.03350682	     -9.67985693	    -58.53889579	      7.00741684	     -7.93849185	      2.47622595	      5.29068893	      1.09679937	     -9.54025869	     -9.10544319	      1.94364430	     -8.22712874	     -0.62598507	    -13.51215451	     -1.41723576	      2.22988321
      1.48850000	      0.74533774	     -0.55686471	     -0.55287898	      0.33460593	      1.02605892	      0.25279264	     18.84588379	     -3.98341406	     -9.97609617	    -57.67143296	      7.06729314	     -8.18797187	      2.34345358	      4.92914694	      1.08499407	     -9.42376054	     -8.88680056	      2.00296223	     -8.06626736	     -0.62928372	    -13.51176669	     -1.33188005	      2.15564393
      1.49266667	      0.94565411	     -0.65117416	     -0.22485614	      0.33937459	      1.02679526	      0.25185645	     18.94878953	     -3.96232417	    -10.42691313	    -56.68537631	      7.15782652	     -8.25754226	      1.90517936	      4.31164799	      1.05987946	     -9.13529128	     -8.63490001	      2.14402091	     -7.96785302	     -0.64265552	    -13.80329809	     -1.11510844	      1.70144234
      1.49683333	      0.98718921	     -0.73618398	      0.02329787	      0.34413651	      1.02722226	      0.25119843	     19.24199107	     -3.89869071	    -10.77213492	    -55.68245491	      7.18482193	     -8.37801972	      1.65902138	      3.87957415	      1.01500355	     -8.95223654	     -8.42323716	      2.28548466	     -7.83178483	     -0.64722736	    -13.89413654	     -0.95767072	      1.54877104
      1.50100000	      1.09161117	     -0.79671057	      0.28102967	      0.34892347	      1.02772002	      0.25049675	     19.44111022	     -3.87642941	    -11.13482958	    -54.63225938	      7.26362284	     -8.41270883	      1.39036502	      3.36562627	      0.99937192	     -8.76160065	     -8.17598508	      2.36864713	     -7.72775590	     -0.65172110	    -14.05493256	     -0.81267942	      1.25482573
      1.50516667	      1.15489956	     -0.84810819	      0.52706264	      0.35370604	      1.02811311	      0.24984746	     19.67463716	     -3.85466293	    -11.47999419	    -53.54462831	      7.32334282	     -8.44620157	      1.14178621	      2.90041299	      0.98784738	     -8.57094022	     -7.93984032	      2.46576994	     -7.64638662	     -0.65485523	    -14.16808044	     -0.68616120	      1.03604506
      1.50933333	      1.22328878	     -0.88073191	      0.75334493	      0.35848073	      1.02846746	      0.24924655	     19.89203432	     -3.84607536	    -11.79950386	    -52.42168133	      7.39500521	     -8.43404979	      0.89904459	      2.42655610	      0.99172166	     -8.39838806	     -7.69734694	      2.54792996	     -7.56278841	     -0.65621387	    -14.28843087	     -0.58765401	      0.78821025
      1.51350000	      1.28154983	     -0.89799906	      0.97075919	      0.36325382	      1.02876205	      0.24869201	     20.10798181	     -3.84779045	    -12.10547062	    -51.26139895	      7.45105420	     -8.41512914	      0.66719443	      1.96108144	      1.00758941	     -8.22594211	     -7.45105466	      2.63647896	     -7.50747568	     -0.65606175	    -14.39596351	     -0.50662222	      0.57794231
      1.51766667	      1.34103511	     -0.89453521	      1.18755445	      0.36803158	      1.02902719	      0.24815065	     20.30519281	     -3.87191116	    -12.41086041	    -50.06107978	      7.49455669	     -8.38262548	      0.39191654	      1.49194950	      1.04193442	     -8.05506766	     -7.19832312	      2.69210770	     -7.42640191	     -0.65497047	    -14.50595399	     -0.45348812	      0.33964753
      1.52183333	      1.27289821	     -0.86892298	      1.29159285	      0.37284054	      1.02902249	      0.24790604	     20.66055006	     -3.86222539	    -12.56893550	    -48.85564473	      7.54402388	     -8.32124544	      0.31300412	      1.15618715	      1.08623002	     -8.01510289	     -6.96125325	      2.75256988	     -7.37303802	     -0.65377071	    -14.45168279	     -0.46039515	      0.27005284
      1.52600000	      1.33900498	     -0.88674628	      1.53784918	      0.37762004	      1.02924129	      0.24734754	     20.79726878	     -3.86707961	    -12.91163588	    -47.54301220	      7.55762921	     -8.29812527	      0.12286005	      0.69037564	      1.08984927	     -7.80967789	     -6.73435700	      2.90553882	     -7.27003795	     -0.64875923	    -14.57889807	     -0.37279337	      0.00477021
      1.53016667	      1.25522703	     -0.80792340	      1.61094955	      0.38243106	      1.02912401	      0.24717764	     21.14855828	     -3.90361349	    -13.03104253	    -46.27843642	      7.57984601	     -8.20552244	      0.07004423	      0.35929369	      1.18948595	     -7.78831088	     -6.47739906	      2.93205041	     -7.21971558	     -0.64762337	    -14.51574322	     -0.45073076	     -0.06398284
      1.53433333	      1.31534916	     -0.79550647	      1.85711296	      0.38723001	      1.02927139	      0.24662572	     21.25340745	     -3.94182762	    -13.37661117	    -44.88428227	      7.55585884	     -8.13953963	     -0.14533117	     -0.10454495	      1.22145272	     -7.58000292	     -6.24545752	      3.05335419	     -7.14411686	     -0.64173472	    -14.62971617	     -0.39316370	     -0.35865516
      1.53850000	      1.20055296	     -0.70948388	      1.91729276	      0.39205981	      1.02903251	      0.24653398	     21.60203872	     -3.97043610	    -13.47566008	    -43.53848310	      7.58067295	     -8.04647986	     -0.18928053	     -0.40278602	      1.32254016	     -7.56798929	     -5.99683655	      3.10805021	     -7.09892839	     -0.64049840	    -14.53077077	     -0.48842830	     -0.40479803
      1.54266667	      1.18095197	     -0.67486965	      2.09951706	      0.39691913	      1.02896680	      0.24617963	     21.77192040	     -3.99358039	    -13.74107102	    -42.08336273	      7.56343564	     -8.00510583	     -0.31332351	     -0.78426990	      1.36596045	     -7.46053547	     -5.77997414	      3.24555362	     -6.98542779	     -0.63631944	    -14.53177047	     -0.47011244	     -0.58815041
      1.54683333	      1.11839231	     -0.59493897	      2.22359981	      0.40174247	      1.02877660	      0.24597289	     21.99780034	     -4.03573036	    -13.91598892	    -40.62179085	      7.53843969	     -7.89890071	     -0.44019134	     -1.13303123	      1.45710232	     -7.36797838	     -5.53817014	      3.32655768	     -6.90703410	     -0.63363351	    -14.50990228	     -0.53796232	     -0.74545165
      1.55100000	      0.98557459	     -0.45378246	      2.26889741	      0.40659009	      1.02839339	      0.24593627	     22.31888186	     -4.11449560	    -14.00033640	    -39.17977146	      7.50642172	     -7.77898116	     -0.47353615	     -1.41705782	      1.61450263	     -7.37581266	     -5.29189971	      3.38840096	     -6.84150590	     -0.63286621	    -14.39734184	     -0.70326301	     -0.79906428
